<svg width="190" height="49" viewBox="0 0 190 49" fill="none" xmlns="http://www.w3.org/2000/svg">
<path d="M96.5598 22.6336L96.3948 20.81C96.3832 20.6934 96.4262 20.6028 96.5237 20.5382L99.8309 18.307C100.058 18.1537 100.101 17.9605 99.9609 17.7274L98.8849 15.9229C98.8219 15.8175 98.7379 15.7261 98.6383 15.6544C98.5387 15.5827 98.4254 15.5322 98.3056 15.506C98.1858 15.4798 98.062 15.4786 97.9419 15.5023C97.8217 15.526 97.7077 15.5742 97.6071 15.6439L96.1708 16.6356C96.1314 16.6624 96.0857 16.6784 96.0382 16.6821C95.9908 16.6857 95.9433 16.6768 95.9005 16.6564C95.8578 16.6359 95.8214 16.6046 95.7949 16.5656C95.7684 16.5265 95.7529 16.4812 95.7498 16.4341L95.377 11.2581C95.3706 11.1771 95.3847 11.0957 95.4178 11.0212C95.451 10.9468 95.5022 10.8817 95.5669 10.8318C97.417 9.40236 99.2827 8.06634 101.164 6.82375C103.184 5.48733 104.093 3.94962 104.584 1.6178C104.592 1.58066 104.592 1.54236 104.585 1.50509C104.578 1.46782 104.564 1.43234 104.544 1.40067C104.523 1.36901 104.496 1.34181 104.465 1.32062C104.434 1.29944 104.399 1.28469 104.362 1.27724C102.161 0.816445 100.206 1.10088 98.3982 2.50207C96.6323 3.86732 94.9299 5.4145 93.0127 6.55764C92.9281 6.60843 92.8369 6.63163 92.7389 6.62726C90.7268 6.54932 88.7418 6.27873 86.7839 5.81548C86.7524 5.8084 86.7237 5.79219 86.7014 5.76888C86.6792 5.74558 86.6642 5.71622 86.6586 5.68447C86.6529 5.65272 86.6567 5.62001 86.6695 5.59043C86.6824 5.56084 86.7036 5.5357 86.7307 5.51816L88.5041 4.37411C88.5412 4.35026 88.5731 4.31911 88.5978 4.28255C88.6224 4.24598 88.6394 4.20477 88.6476 4.16144C88.6559 4.1181 88.6552 4.07355 88.6456 4.03048C88.6361 3.98742 88.6179 3.94675 88.5921 3.91096L87.3542 2.16947C87.298 2.09032 87.2266 2.02312 87.1442 1.97173C87.0618 1.92034 86.97 1.88577 86.874 1.87002C86.7781 1.85427 86.6799 1.85766 86.5851 1.87997C86.4903 1.90229 86.4008 1.9431 86.3217 2.00005C85.1816 2.81885 84.0231 3.63251 82.8462 4.44104C82.6072 4.60441 82.2561 4.68238 82.0107 4.65614C79.2245 4.36651 76.4563 3.95453 73.7059 3.42019C73.5574 3.3926 73.2604 3.42849 72.8151 3.52785C72.7719 3.53702 72.7318 3.55761 72.699 3.58751C72.6661 3.61741 72.6417 3.65556 72.6281 3.69809L72.2493 4.83255" stroke="black"/>
<path d="M72.2493 4.83256C71.9949 5.19202 71.9137 5.514 72.0057 5.79852C72.0421 5.91042 72.1156 5.98656 72.2262 6.02693L86.7804 11.1767C86.8011 11.1841 86.8198 11.1961 86.8351 11.2119C86.8504 11.2276 86.8619 11.2466 86.8687 11.2675C86.8755 11.2884 86.8775 11.3105 86.8744 11.3323C86.8713 11.354 86.8633 11.3748 86.8509 11.3929C86.7925 11.4793 86.6758 11.5455 86.501 11.5917" stroke="black"/>
<path d="M86.8073 11.2379L80.6621 16.278" stroke="black"/>
<path d="M80.6621 16.2779C80.3686 16.5294 80.1291 16.6756 79.7154 16.6061C77.6307 16.2487 75.5958 15.8648 73.6109 15.4542C73.4766 15.4258 73.3368 15.4403 73.2112 15.4956C73.0856 15.551 72.9806 15.6443 72.9109 15.7625L71.9613 17.3706C71.9358 17.4127 71.9258 17.4624 71.9333 17.511C71.9407 17.5597 71.965 17.6042 72.0019 17.6367C72.1483 17.7718 72.3821 17.8531 72.7032 17.8806" stroke="black"/>
<path d="M72.7032 17.8806L78.3128 20.7317C78.3987 20.7768 78.4566 20.8448 78.4865 20.9358C79.2827 23.3969 80.4204 25.6652 81.1759 28.1995C81.1856 28.2314 81.2027 28.2606 81.2259 28.2846C81.249 28.3086 81.2776 28.3267 81.3092 28.3374C81.3407 28.3482 81.3744 28.3512 81.4074 28.3464C81.4404 28.3415 81.4717 28.3288 81.4989 28.3094L83.4392 26.9124C83.5328 26.846 83.5682 26.7566 83.5452 26.6442C83.127 24.5319 82.9747 22.401 83.0883 20.2516C83.0905 20.2128 83.101 20.1749 83.1192 20.1405C83.1374 20.1062 83.1628 20.0761 83.1937 20.0525L89.4719 15.3456C89.4994 15.3254 89.5313 15.312 89.5649 15.3065C89.5985 15.301 89.6329 15.3036 89.6651 15.3141C89.6973 15.3246 89.7265 15.3426 89.75 15.3667C89.7736 15.3908 89.7909 15.4202 89.8005 15.4524L94.6291 31.2322C94.6527 31.3081 94.7025 31.3342 94.7784 31.3105C95.6607 31.0335 96.4093 30.5462 97.0243 29.8486" stroke="black"/>
<path d="M97.0243 29.8486C97.1362 29.7547 97.1857 29.6025 97.1728 29.3921C96.9956 26.8076 96.7913 24.5548 96.5598 22.6337" stroke="black"/>
<path d="M72.7032 17.8807C72.6199 17.3984 72.7343 17.0379 73.0465 16.7992C73.2577 16.6368 73.5789 16.5828 74.0103 16.6373C76.0688 16.8997 78.1153 17.2315 80.1498 17.6327C80.4027 17.6817 80.5836 17.6181 80.6927 17.4418C80.7437 17.3615 80.8056 17.2933 80.8785 17.2371C81.7799 16.5606 82.6156 15.8115 83.3856 14.9898C83.7261 14.6256 84.377 14.1674 85.3382 13.6154C85.5376 13.5013 85.761 13.2177 86.0084 12.7645C86.0507 12.6883 86.1161 12.6277 86.1953 12.5914C86.5787 12.4174 86.8825 12.1598 87.1069 11.8186C87.1999 11.6755 87.1609 11.6021 86.9902 11.5982L86.501 11.5917" stroke="black"/>
<path d="M97.0243 29.8485L96.9488 29.4858C96.9214 29.3544 96.8614 29.3382 96.7689 29.4372L96.6884 29.5234C96.6125 29.6045 96.5641 29.5908 96.5432 29.4822C96.3802 28.6565 96.1575 27.853 96.0781 27.0302C95.9077 25.2738 95.764 23.5146 95.6472 21.7526C95.6321 21.5604 95.5122 21.3315 95.4984 21.1795C95.0614 16.0613 94.7762 12.8592 94.6427 11.5733C94.5843 11.0346 94.6052 10.8009 95.0924 10.494C95.545 10.2103 95.9685 9.89022 96.363 9.53371C96.9082 9.04174 97.3178 8.70677 97.5917 8.52881C98.1773 8.15245 98.7812 7.80902 99.4035 7.49852C100.028 7.18605 100.536 6.87652 100.928 6.56994C101.616 6.03099 102.066 5.63712 102.28 5.38831C102.804 4.77818 103.222 3.91565 103.534 2.80072C103.67 2.31295 103.654 1.85617 103.073 1.75496C101.341 1.45092 99.9107 1.97844 98.783 3.33754C98.4292 3.76362 97.9384 4.04859 97.3105 4.19246C97.2172 4.21285 97.1392 4.25863 97.0764 4.32977C96.487 4.99196 95.7478 5.67262 94.8586 6.37175C93.6577 7.31915 92.3206 7.69878 90.8474 7.51065C89.332 7.32011 86.9699 6.84172 83.7612 6.07547C82.2187 5.70752 80.7718 5.41688 79.4205 5.20355C77.9594 4.97475 76.4993 4.74686 75.0401 4.51991C74.4985 4.43653 73.8784 4.41141 73.1796 4.44453C73.1012 4.4491 73.041 4.48372 72.999 4.54841L72.5749 5.19257C72.5111 5.29059 72.4376 5.29786 72.3542 5.21438C72.2907 5.15133 72.2558 5.02404 72.2493 4.83252" stroke="black"/>
<path d="M96.5598 22.6336C96.7913 24.5548 96.9957 26.8076 97.1729 29.392C97.1857 29.6025 97.1362 29.7547 97.0243 29.8486L96.9488 29.4858C96.9214 29.3545 96.8614 29.3383 96.7689 29.4373L96.6884 29.5234C96.6125 29.6046 96.5641 29.5908 96.5432 29.4823C96.3802 28.6565 96.1575 27.853 96.078 27.0302C95.9077 25.2738 95.764 23.5147 95.6472 21.7526C95.6321 21.5605 95.5122 21.3315 95.4984 21.1796C95.0614 16.0613 94.7762 12.8593 94.6427 11.5733C94.5843 11.0346 94.6052 10.8009 95.0924 10.494C95.545 10.2103 95.9685 9.89025 96.363 9.53374C96.9082 9.04177 97.3178 8.7068 97.5917 8.52884C98.1773 8.15247 98.7812 7.80905 99.4035 7.49855C100.028 7.18608 100.536 6.87655 100.928 6.56997C101.616 6.03102 102.066 5.63715 102.28 5.38834C102.804 4.77821 103.222 3.91568 103.534 2.80075C103.67 2.31298 103.654 1.8562 103.073 1.75499C101.341 1.45095 99.9107 1.97847 98.783 3.33756C98.4292 3.76365 97.9384 4.04862 97.3105 4.19248C97.2172 4.21288 97.1392 4.25866 97.0764 4.3298C96.487 4.99199 95.7478 5.67265 94.8586 6.37178C93.6577 7.31918 92.3206 7.69881 90.8474 7.51068C89.332 7.32014 86.9699 6.84174 83.7612 6.0755C82.2187 5.70755 80.7718 5.41691 79.4205 5.20358C77.9594 4.97477 76.4993 4.74689 75.0401 4.51994C74.4985 4.43656 73.8783 4.41144 73.1796 4.44456C73.1011 4.44912 73.041 4.48375 72.999 4.54843L72.5749 5.19259C72.5111 5.29062 72.4376 5.29789 72.3542 5.21441C72.2907 5.15136 72.2558 5.02407 72.2493 4.83255L72.6281 3.69809C72.6417 3.65556 72.6661 3.61741 72.699 3.58751C72.7318 3.55761 72.7719 3.53702 72.8151 3.52785C73.2604 3.42849 73.5574 3.3926 73.7059 3.42019C76.4563 3.95453 79.2245 4.36651 82.0107 4.65614C82.2561 4.68238 82.6072 4.60441 82.8462 4.44104C84.0231 3.63251 85.1816 2.81885 86.3217 2.00005C86.4008 1.9431 86.4903 1.90229 86.5851 1.87997C86.6799 1.85766 86.7781 1.85427 86.874 1.87002C86.97 1.88577 87.0618 1.92034 87.1442 1.97173C87.2266 2.02312 87.298 2.09032 87.3542 2.16947L88.5921 3.91097C88.6179 3.94675 88.6361 3.98742 88.6456 4.03048C88.6552 4.07355 88.6559 4.1181 88.6476 4.16144C88.6394 4.20477 88.6224 4.24598 88.5978 4.28255C88.5731 4.31911 88.5412 4.35026 88.5041 4.37411L86.7307 5.51816C86.7036 5.5357 86.6824 5.56084 86.6695 5.59043C86.6567 5.62001 86.6529 5.65272 86.6586 5.68447C86.6642 5.71622 86.6792 5.74558 86.7014 5.76888C86.7237 5.79219 86.7524 5.8084 86.7839 5.81548C88.7418 6.27873 90.7268 6.54932 92.7389 6.62726C92.8369 6.63163 92.9281 6.60843 93.0127 6.55764C94.9299 5.4145 96.6323 3.86732 98.3982 2.50207C100.206 1.10088 102.161 0.816445 104.362 1.27724C104.399 1.28469 104.434 1.29944 104.465 1.32062C104.496 1.34181 104.523 1.36901 104.544 1.40067C104.564 1.43234 104.578 1.46782 104.585 1.50509C104.592 1.54236 104.592 1.58066 104.584 1.6178C104.093 3.94962 103.184 5.48733 101.164 6.82375C99.2827 8.06634 97.417 9.40236 95.5669 10.8318C95.5022 10.8817 95.451 10.9468 95.4178 11.0212C95.3847 11.0957 95.3706 11.1771 95.377 11.2581L95.7498 16.4341C95.7529 16.4812 95.7684 16.5265 95.7949 16.5656C95.8214 16.6046 95.8578 16.6359 95.9005 16.6564C95.9433 16.6768 95.9908 16.6857 96.0382 16.6821C96.0857 16.6784 96.1314 16.6624 96.1708 16.6356L97.6071 15.6439C97.7077 15.5742 97.8217 15.526 97.9419 15.5023C98.062 15.4786 98.1858 15.4798 98.3056 15.506C98.4254 15.5322 98.5387 15.5827 98.6383 15.6544C98.7379 15.7261 98.8219 15.8175 98.8849 15.9229L99.9609 17.7274C100.101 17.9605 100.058 18.1537 99.8309 18.307L96.5237 20.5382C96.4262 20.6028 96.3832 20.6934 96.3948 20.81L96.5598 22.6336Z" fill="black"/>
<path d="M97.0243 29.8486C96.4093 30.5462 95.6607 31.0335 94.7784 31.3105C94.7025 31.3342 94.6527 31.3081 94.6291 31.2322L89.8005 15.4524C89.7909 15.4202 89.7736 15.3908 89.75 15.3667C89.7265 15.3426 89.6973 15.3246 89.6651 15.3141C89.6329 15.3036 89.5985 15.301 89.5649 15.3065C89.5313 15.312 89.4994 15.3254 89.4719 15.3456L83.1937 20.0525C83.1628 20.0761 83.1374 20.1062 83.1192 20.1405C83.101 20.1749 83.0905 20.2128 83.0883 20.2516C82.9747 22.401 83.127 24.5319 83.5452 26.6442C83.5682 26.7566 83.5328 26.846 83.4392 26.9124L81.4989 28.3094C81.4717 28.3288 81.4404 28.3415 81.4074 28.3464C81.3744 28.3512 81.3407 28.3482 81.3092 28.3374C81.2776 28.3267 81.249 28.3086 81.2259 28.2846C81.2027 28.2606 81.1856 28.2314 81.1759 28.1995C80.4204 25.6652 79.2827 23.3969 78.4865 20.9358C78.4566 20.8448 78.3987 20.7768 78.3128 20.7317L72.7032 17.8806C72.6199 17.3983 72.7343 17.0379 73.0464 16.7992C73.2576 16.6367 73.5789 16.5828 74.0102 16.6373C76.0688 16.8996 78.1153 17.2314 80.1498 17.6327C80.4026 17.6817 80.5836 17.618 80.6927 17.4418C80.7437 17.3615 80.8056 17.2932 80.8785 17.2371C81.7799 16.5605 82.6156 15.8115 83.3856 14.9898C83.7261 14.6255 84.377 14.1674 85.3382 13.6154C85.5376 13.5013 85.761 13.2176 86.0084 12.7645C86.0506 12.6883 86.1161 12.6276 86.1953 12.5913C86.5786 12.4174 86.8825 12.1598 87.1069 11.8186C87.1998 11.6755 87.1609 11.602 86.9901 11.5982L86.501 11.5917C86.6758 11.5455 86.7925 11.4793 86.8509 11.3929C86.8633 11.3748 86.8713 11.354 86.8744 11.3323C86.8775 11.3105 86.8755 11.2884 86.8687 11.2675C86.8619 11.2466 86.8504 11.2276 86.8351 11.2118C86.8198 11.1961 86.8011 11.1841 86.7804 11.1767L72.2262 6.02693C72.1156 5.98655 72.0421 5.91042 72.0057 5.79851C71.9137 5.514 71.9949 5.19202 72.2493 4.83256C72.2557 5.02408 72.2907 5.15137 72.3542 5.21442C72.4375 5.2979 72.5111 5.29063 72.5749 5.19261L72.999 4.54845C73.0409 4.48376 73.1011 4.44914 73.1796 4.44458C73.8783 4.41145 74.4985 4.43657 75.0401 4.51995C76.4992 4.7469 77.9593 4.97479 79.4205 5.20359C80.7718 5.41692 82.2187 5.70756 83.7611 6.07551C86.9699 6.84176 89.332 7.32015 90.8474 7.51069C92.3206 7.69882 93.6576 7.31919 94.8586 6.37179C95.7477 5.67266 96.487 4.992 97.0763 4.32981C97.1391 4.25867 97.2172 4.21289 97.3104 4.1925C97.9383 4.04863 98.4292 3.76366 98.783 3.33758C99.9106 1.97848 101.341 1.45096 103.073 1.755C103.654 1.85621 103.67 2.31299 103.534 2.80076C103.222 3.91569 102.804 4.77822 102.28 5.38835C102.066 5.63716 101.616 6.03103 100.928 6.56998C100.536 6.87656 100.028 7.18609 99.4035 7.49856C98.7812 7.80906 98.1772 8.15249 97.5917 8.52885C97.3177 8.70681 96.9082 9.04178 96.3629 9.53375C95.9684 9.89026 95.5449 10.2104 95.0924 10.494C94.6052 10.8009 94.5843 11.0346 94.6427 11.5734C94.7761 12.8593 95.0614 16.0614 95.4984 21.1796C95.5121 21.3315 95.632 21.5605 95.6471 21.7527C95.764 23.5147 95.9076 25.2739 96.078 27.0302C96.1575 27.853 96.3801 28.6566 96.5431 29.4823C96.564 29.5909 96.6124 29.6046 96.6883 29.5234L96.7688 29.4373C96.8614 29.3383 96.9214 29.3545 96.9488 29.4859L97.0243 29.8486Z" fill="black"/>
<path d="M86.501 11.5917L86.9901 11.5982C87.1609 11.602 87.1998 11.6755 87.1069 11.8186C86.8825 12.1598 86.5787 12.4174 86.1953 12.5913C86.1161 12.6276 86.0506 12.6883 86.0084 12.7645C85.761 13.2176 85.5376 13.5013 85.3382 13.6154C84.377 14.1674 83.7261 14.6255 83.3856 14.9898C82.6156 15.8114 81.7799 16.5605 80.8785 17.2371C80.8056 17.2932 80.7437 17.3615 80.6927 17.4418C80.5836 17.618 80.4026 17.6817 80.1498 17.6327C78.1153 17.2314 76.0688 16.8996 74.0102 16.6373C73.5789 16.5828 73.2576 16.6367 73.0464 16.7992C72.7343 17.0379 72.6199 17.3983 72.7032 17.8806C72.3821 17.8531 72.1483 17.7718 72.0019 17.6368C71.965 17.6042 71.9407 17.5597 71.9333 17.5111C71.9259 17.4625 71.9358 17.4128 71.9613 17.3707L72.9109 15.7626C72.9806 15.6444 73.0856 15.551 73.2112 15.4957C73.3368 15.4404 73.4766 15.4259 73.6109 15.4543C75.5958 15.8648 77.6307 16.2488 79.7154 16.6061C80.1291 16.6756 80.3686 16.5295 80.6621 16.278L86.501 11.5917Z" fill="black"/>
<path d="M12.873 32.9922L12.8655 31.7442C12.864 31.612 12.9153 31.4846 13.008 31.3899C13.1008 31.2951 13.2275 31.2408 13.3604 31.2386L19.0296 31.1627C19.1293 31.1631 19.1909 31.1141 19.2144 31.0155C19.2921 30.7023 19.3057 30.4516 19.2553 30.2635" stroke="black"/>
<path d="M19.2552 30.2634L19.3919 26.8075C19.396 26.7 19.3433 26.6452 19.2339 26.6431L11.6323 26.5569" stroke="black"/>
<path d="M11.6323 26.557L1.10475 26.6154C0.995453 26.6152 0.921414 26.6656 0.882634 26.7667C0.774901 27.0406 0.750007 27.4115 0.80795 27.8794" stroke="black"/>
<path d="M0.807953 27.8794L0.913579 30.844C0.915968 30.9167 0.946403 30.9857 0.998509 31.0365C1.05062 31.0873 1.12035 31.1159 1.19311 31.1164L7.53727 31.1846C7.75019 31.187 7.85735 31.2946 7.85877 31.5074L7.94578 47.0672C7.94606 47.1682 7.98604 47.2652 8.05723 47.3375C8.12841 47.4097 8.22518 47.4516 8.32696 47.4541L12.7106 47.5509C12.8276 47.5527 12.886 47.4952 12.8859 47.3782L12.873 32.9922" stroke="black"/>
<path d="M19.2552 30.2634C18.9209 30.2421 18.662 30.2681 18.4784 30.3414C18.4122 30.3666 18.3665 30.347 18.3413 30.2827C18.0046 29.4226 19.4141 29.0041 18.5787 27.7696C18.5262 27.6889 18.452 27.6492 18.3562 27.6505C16.4397 27.6787 14.5235 27.6876 12.6077 27.6774C12.2078 27.6736 11.9147 27.5109 11.4663 27.5203C11.0083 27.528 10.2036 27.489 9.05216 27.4031C8.20055 27.3379 6.66058 27.4434 4.43226 27.7198C3.8556 27.791 3.25288 27.8286 2.6241 27.8325C2.02219 27.8374 1.41682 27.853 0.807961 27.8793" stroke="black"/>
<path d="M11.6323 26.557L19.2339 26.6431C19.3433 26.6452 19.396 26.7 19.3919 26.8075L19.2552 30.2635C18.9209 30.2421 18.6619 30.2681 18.4784 30.3414C18.4122 30.3666 18.3664 30.3471 18.3413 30.2827C18.0045 29.4226 19.4141 29.0041 18.5787 27.7696C18.5262 27.689 18.452 27.6493 18.3561 27.6506C16.4397 27.6787 14.5235 27.6877 12.6077 27.6774C12.2078 27.6736 11.9147 27.5109 11.4663 27.5203C11.0083 27.5281 10.2036 27.489 9.05215 27.4032C8.20054 27.3379 6.66057 27.4435 4.43225 27.7199C3.85559 27.7911 3.25287 27.8286 2.62409 27.8326C2.02218 27.8375 1.4168 27.8531 0.80795 27.8794C0.750007 27.4115 0.774901 27.0406 0.882634 26.7667C0.921414 26.6656 0.995453 26.6152 1.10475 26.6154L11.6323 26.557Z" fill="black"/>
<path d="M19.2552 30.2634C19.3057 30.4515 19.2921 30.7022 19.2144 31.0155C19.1909 31.114 19.1293 31.1631 19.0296 31.1626L13.3604 31.2386C13.2274 31.2407 13.1008 31.2951 13.008 31.3898C12.9153 31.4846 12.864 31.612 12.8655 31.7442L12.873 32.9922L12.8859 47.3781C12.8861 47.4951 12.8276 47.5527 12.7106 47.5508L8.32697 47.454C8.22519 47.4515 8.12842 47.4097 8.05723 47.3374C7.98605 47.2651 7.94606 47.1682 7.94579 47.0671L7.85878 31.5073C7.85736 31.2945 7.7502 31.1869 7.53728 31.1845L1.19312 31.1164C1.12036 31.1158 1.05062 31.0872 0.998518 31.0364C0.946411 30.9856 0.915976 30.9166 0.913587 30.8439L0.807961 27.8793C1.41682 27.853 2.02219 27.8374 2.6241 27.8325C3.25288 27.8286 3.8556 27.791 4.43226 27.7198C6.66058 27.4434 8.20055 27.3379 9.05216 27.4031C10.2036 27.489 11.0083 27.528 11.4663 27.5203C11.9147 27.5109 12.2078 27.6736 12.6077 27.6774C14.5235 27.6876 16.4397 27.6787 18.3561 27.6505C18.452 27.6492 18.5262 27.6889 18.5787 27.7696C19.4141 29.0041 18.0046 29.4226 18.3413 30.2827C18.3665 30.347 18.4122 30.3666 18.4784 30.3414C18.662 30.2681 18.9209 30.2421 19.2552 30.2634Z" fill="black"/>
<path d="M30.2386 42.2414L30.2326 41.2091C30.2305 41.0922 30.2872 41.0395 30.4027 41.051L33.649 41.3673C33.7721 41.3785 33.8642 41.4377 33.9253 41.5449L36.9402 46.9454C36.9901 47.035 37.0631 47.1095 37.1515 47.1607C37.2398 47.2119 37.3402 47.238 37.4419 47.2362L42.0698 47.158C42.1172 47.1569 42.1635 47.1434 42.204 47.1188C42.2445 47.0941 42.2778 47.0593 42.3006 47.0177C42.3234 46.9762 42.3348 46.9293 42.3338 46.8819C42.3327 46.8345 42.3193 46.7883 42.2947 46.7477L38.0768 39.8749C38.0241 39.7885 38.041 39.7208 38.1275 39.6719C39.0006 39.1804 39.7431 38.5092 40.3548 37.6584" stroke="black"/>
<path d="M40.3548 37.6584C41.2931 36.3115 41.6881 34.7748 41.5398 33.0483C41.1976 29.1224 37.8187 26.4924 33.9824 26.5066C31.145 26.5178 28.3008 26.5274 25.4499 26.5352C25.239 26.5347 25.1056 26.59 25.05 26.7011C24.9853 26.8299 24.9863 27.0043 25.0532 27.2245" stroke="black"/>
<path d="M25.0532 27.2245C24.9729 32.781 25.2819 39.3052 25.2336 46.8365C25.2318 47.011 25.3646 47.0842 25.6321 47.056" stroke="black"/>
<path d="M25.6322 47.0559L30.0818 47.0642C30.117 47.0642 30.1519 47.0572 30.1844 47.0436C30.2169 47.0301 30.2463 47.0102 30.2709 46.9853C30.2955 46.9604 30.3148 46.9308 30.3277 46.8984C30.3406 46.8659 30.3468 46.8313 30.346 46.7964L30.2386 42.2414" stroke="black"/>
<path d="M40.3548 37.6584L40.1481 37.6682C40.0237 37.6762 39.9816 37.6201 40.0216 37.4999C40.5205 36.0316 40.7566 34.53 40.7298 32.995C40.7166 32.148 40.5296 31.4046 40.1686 30.7648C38.9112 28.5293 36.938 27.7559 34.4565 27.5174C31.7846 27.2623 29.0881 27.471 26.4049 27.5643C26.3015 27.5678 26.2066 27.5393 26.1202 27.479C25.9102 27.3346 25.6895 27.3305 25.4583 27.4668C25.4404 27.4771 25.4206 27.4836 25.4002 27.4859C25.3798 27.4882 25.3591 27.4863 25.3396 27.4801C25.3202 27.474 25.3023 27.4639 25.2872 27.4504C25.272 27.4369 25.26 27.4203 25.2519 27.4018C25.1896 27.2601 25.1234 27.201 25.0532 27.2244" stroke="black"/>
<path d="M30.0301 31.2731L29.919 36.2555C29.9181 36.2971 29.9254 36.3384 29.9405 36.3772C29.9555 36.416 29.9781 36.4514 30.0069 36.4814C30.0357 36.5114 30.0702 36.5355 30.1083 36.5522C30.1464 36.5688 30.1874 36.5779 30.229 36.5787L33.4642 36.6509C33.8689 36.6599 34.2713 36.5962 34.6483 36.4635C35.0253 36.3308 35.3696 36.1317 35.6616 35.8775C35.9535 35.6232 36.1873 35.3189 36.3496 34.9819C36.5119 34.6449 36.5996 34.2818 36.6076 33.9133L36.6074 33.9076C36.6237 33.1638 36.3147 32.4433 35.7486 31.9047C35.1825 31.3661 34.4055 31.0534 33.5885 31.0354L30.3533 30.9631C30.3117 30.9622 30.2704 30.9695 30.2316 30.9846C30.1928 30.9997 30.1574 31.0223 30.1274 31.0511C30.0974 31.0799 30.0733 31.1143 30.0566 31.1524C30.04 31.1905 30.031 31.2316 30.0301 31.2731Z" stroke="black"/>
<path d="M40.3548 37.6584L40.1481 37.6683C40.0237 37.6763 39.9816 37.6202 40.0216 37.4999C40.5205 36.0317 40.7566 34.53 40.7298 32.9951C40.7166 32.148 40.5295 31.4046 40.1686 30.7649C38.9112 28.5293 36.938 27.756 34.4565 27.5174C31.7846 27.2623 29.0881 27.4711 26.4049 27.5643C26.3015 27.5678 26.2066 27.5394 26.1202 27.479C25.9102 27.3346 25.6895 27.3305 25.4583 27.4668C25.4404 27.4771 25.4206 27.4837 25.4002 27.486C25.3798 27.4883 25.3591 27.4863 25.3396 27.4802C25.3202 27.4741 25.3023 27.4639 25.2872 27.4504C25.272 27.4369 25.26 27.4204 25.2519 27.4019C25.1896 27.2601 25.1234 27.201 25.0532 27.2245C24.9863 27.0043 24.9853 26.8299 25.05 26.7011C25.1056 26.59 25.239 26.5347 25.4499 26.5352C28.3008 26.5274 31.145 26.5178 33.9824 26.5066C37.8187 26.4924 41.1976 29.1224 41.5398 33.0483C41.6881 34.7748 41.2931 36.3115 40.3548 37.6584Z" fill="black"/>
<path d="M25.0532 27.2244C25.1234 27.201 25.1896 27.2601 25.2519 27.4018C25.26 27.4203 25.272 27.4369 25.2871 27.4504C25.3023 27.4639 25.3202 27.474 25.3396 27.4801C25.3591 27.4863 25.3797 27.4882 25.4002 27.4859C25.4206 27.4836 25.4404 27.4771 25.4583 27.4668C25.6895 27.3305 25.9102 27.3346 26.1202 27.479C26.2066 27.5393 26.3015 27.5678 26.4049 27.5643C29.0881 27.471 31.7846 27.2623 34.4565 27.5174C36.938 27.7559 38.9112 28.5293 40.1686 30.7648C40.5295 31.4046 40.7166 32.148 40.7298 32.995C40.7566 34.53 40.5205 36.0316 40.0216 37.4999C39.9815 37.6201 40.0237 37.6762 40.1481 37.6682L40.3548 37.6584C39.7431 38.5092 39.0006 39.1804 38.1275 39.6719C38.0409 39.7209 38.024 39.7885 38.0768 39.875L42.2947 46.7478C42.3192 46.7883 42.3327 46.8346 42.3338 46.882C42.3348 46.9293 42.3233 46.9762 42.3006 47.0177C42.2778 47.0593 42.2444 47.0942 42.2039 47.1188C42.1634 47.1434 42.1171 47.1569 42.0698 47.158L37.4418 47.2362C37.3402 47.238 37.2398 47.2119 37.1514 47.1607C37.0631 47.1095 36.9901 47.035 36.9402 46.9454L33.9253 41.5449C33.8642 41.4377 33.772 41.3785 33.649 41.3673L30.4027 41.051C30.2872 41.0395 30.2305 41.0922 30.2325 41.2091L30.2386 42.2415L30.346 46.7965C30.3468 46.8314 30.3406 46.866 30.3277 46.8984C30.3148 46.9309 30.2954 46.9604 30.2708 46.9854C30.2462 47.0103 30.2168 47.0301 30.1843 47.0437C30.1519 47.0572 30.117 47.0642 30.0818 47.0643L25.6321 47.056C25.3646 47.0842 25.2318 47.011 25.2336 46.8364C25.2818 39.3051 24.9729 32.781 25.0532 27.2244ZM30.0301 31.2732L29.919 36.2555C29.918 36.2971 29.9253 36.3385 29.9404 36.3772C29.9555 36.416 29.9781 36.4514 30.0069 36.4814C30.0357 36.5115 30.0701 36.5355 30.1083 36.5522C30.1464 36.5689 30.1874 36.5779 30.229 36.5787L33.4642 36.6509C33.8689 36.6599 34.2712 36.5963 34.6483 36.4636C35.0253 36.3309 35.3696 36.1317 35.6615 35.8775C35.9534 35.6233 36.1872 35.319 36.3496 34.9819C36.5119 34.6449 36.5996 34.2818 36.6076 33.9133L36.6074 33.9076C36.6236 33.1638 36.3147 32.4434 35.7486 31.9048C35.1824 31.3661 34.4054 31.0534 33.5885 31.0354L30.3533 30.9632C30.3117 30.9622 30.2703 30.9695 30.2316 30.9846C30.1928 30.9997 30.1574 31.0223 30.1274 31.0511C30.0973 31.0799 30.0733 31.1143 30.0566 31.1524C30.0399 31.1906 30.0309 31.2316 30.0301 31.2732Z" fill="black"/>
<path d="M47.4908 46.661L51.7834 46.6743C51.8397 46.6738 51.8945 46.6566 51.9409 46.6249C51.9874 46.5932 52.0235 46.5485 52.0445 46.4963L53.1909 43.6431C53.2282 43.5509 53.2966 43.5022 53.3961 43.4969C56.4498 43.3247 59.5053 43.2974 62.5629 43.4148C62.659 43.4174 62.7323 43.4605 62.7828 43.5442L64.5496 46.5618C64.5902 46.6323 64.6486 46.6909 64.719 46.7316C64.7894 46.7723 64.8693 46.7938 64.9506 46.7938L68.4868 46.8186" stroke="black"/>
<path d="M68.4868 46.8187L69.4748 46.6682C69.5189 46.6614 69.5608 46.6441 69.5968 46.6177C69.6329 46.5914 69.6621 46.5567 69.6819 46.5167C69.7018 46.4767 69.7118 46.4326 69.711 46.3879C69.7103 46.3433 69.6988 46.2994 69.6776 46.2602C66.2052 39.8627 62.5798 33.5472 58.8014 27.3138C58.4824 26.7838 58.4414 26.2822 57.623 26.3747C57.1996 26.4232 56.8054 26.4269 56.4416 26.5153C56.3962 26.5269 56.3536 26.5483 56.3169 26.578C56.2803 26.6078 56.2503 26.6453 56.2292 26.6879C53.451 32.5046 50.6454 38.3084 47.8121 44.0993C47.5082 44.7171 47.2378 45.477 46.914 46.1534C46.8103 46.3681 46.814 46.5109 46.9252 46.5818C47.0365 46.6526 47.225 46.679 47.4908 46.661" stroke="black"/>
<path d="M68.4868 46.8186L68.0219 46.7915C67.9045 46.7843 67.8786 46.732 67.9445 46.6344C68.0636 46.4573 68.228 46.3555 68.4377 46.329C68.5521 46.3152 68.5911 46.2536 68.5545 46.1443C68.4501 45.8409 68.3033 45.5714 68.1143 45.3358C67.8698 45.0341 67.7056 44.7972 67.6216 44.6251C66.8951 43.1439 65.8637 41.8833 65.224 40.3572C64.791 39.3247 64.2112 38.3826 63.4846 37.5309C63.4251 37.4592 63.3882 37.3777 63.3737 37.2863C63.3164 36.8941 63.1842 36.5384 62.9772 36.2193C62.6596 35.7315 62.4646 35.4032 62.3923 35.2344C62.0822 34.5293 61.5787 33.5956 60.8816 32.4333C59.9801 30.9269 59.0472 29.4442 58.0829 27.9852C57.7282 27.4495 57.238 27.2184 56.6125 27.292C56.5096 27.3052 56.4386 27.3598 56.3996 27.4559C55.8739 28.7562 55.2753 30.0211 54.6038 31.2505C53.7196 32.8635 53.061 34.4961 52.234 36.1032C51.8496 36.8491 51.5116 37.6021 51.2201 38.3622C50.2805 40.8273 48.8928 43.1493 47.6786 45.4852C47.4627 45.8996 47.4001 46.2916 47.4908 46.661" stroke="black"/>
<path d="M57.4109 34.5035L55.5504 38.7045C55.5286 38.7542 55.5196 38.8085 55.524 38.8626C55.5284 38.9167 55.5462 38.9688 55.5757 39.0143C55.6052 39.0598 55.6456 39.0973 55.6932 39.1234C55.7407 39.1494 55.794 39.1633 55.8483 39.1636L60.1372 39.2146C60.3197 39.2183 60.3748 39.1367 60.3026 38.9697C59.605 37.3641 58.725 35.8652 57.6625 34.4729C57.6471 34.4524 57.6265 34.4363 57.6028 34.4263C57.5792 34.4163 57.5534 34.4127 57.5279 34.4158C57.5024 34.4189 57.4782 34.4286 57.4576 34.444C57.4371 34.4594 57.421 34.48 57.4109 34.5035Z" stroke="black"/>
<path d="M68.4868 46.8187L68.0219 46.7916C67.9045 46.7844 67.8787 46.732 67.9445 46.6345C68.0636 46.4574 68.228 46.3555 68.4377 46.329C68.5521 46.3153 68.5911 46.2537 68.5546 46.1443C68.4501 45.8409 68.3034 45.5714 68.1143 45.3359C67.8699 45.0342 67.7056 44.7973 67.6216 44.6252C66.8951 43.144 65.8637 41.8834 65.224 40.3572C64.791 39.3248 64.2112 38.3827 63.4846 37.531C63.4251 37.4593 63.3882 37.3778 63.3737 37.2864C63.3164 36.8941 63.1842 36.5385 62.9773 36.2194C62.6596 35.7316 62.4646 35.4033 62.3923 35.2344C62.0823 34.5294 61.5787 33.5957 60.8816 32.4334C59.9801 30.927 59.0472 29.4443 58.0829 27.9853C57.7282 27.4496 57.2381 27.2185 56.6125 27.2921C56.5096 27.3052 56.4386 27.3599 56.3996 27.456C55.8739 28.7563 55.2753 30.0212 54.6038 31.2505C53.7196 32.8635 53.061 34.4962 52.234 36.1033C51.8496 36.8492 51.5116 37.6021 51.2201 38.3622C50.2805 40.8274 48.8928 43.1494 47.6786 45.4852C47.4627 45.8997 47.4001 46.2916 47.4908 46.661C47.225 46.679 47.0365 46.6526 46.9252 46.5818C46.814 46.5109 46.8103 46.3681 46.914 46.1534C47.2378 45.477 47.5082 44.7171 47.8121 44.0993C50.6454 38.3084 53.451 32.5046 56.2292 26.6879C56.2503 26.6453 56.2803 26.6078 56.3169 26.578C56.3536 26.5483 56.3962 26.5269 56.4416 26.5153C56.8054 26.4269 57.1996 26.4232 57.623 26.3747C58.4414 26.2822 58.4824 26.7838 58.8014 27.3138C62.5798 33.5472 66.2052 39.8627 69.6776 46.2602C69.6988 46.2994 69.7103 46.3433 69.711 46.3879C69.7118 46.4326 69.7018 46.4767 69.6819 46.5167C69.6621 46.5567 69.6329 46.5914 69.5968 46.6177C69.5608 46.6441 69.5189 46.6614 69.4748 46.6682L68.4868 46.8187Z" fill="black"/>
<path d="M68.4868 46.8186L64.9506 46.7938C64.8693 46.7938 64.7894 46.7723 64.719 46.7316C64.6486 46.6909 64.5902 46.6323 64.5497 46.5618L62.7828 43.5441C62.7323 43.4605 62.659 43.4174 62.5629 43.4148C59.5054 43.2974 56.4498 43.3247 53.3961 43.4969C53.2966 43.5021 53.2282 43.5509 53.1909 43.6431L52.0446 46.4963C52.0235 46.5485 51.9874 46.5932 51.941 46.6249C51.8945 46.6565 51.8397 46.6737 51.7834 46.6743L47.4908 46.661C47.4001 46.2916 47.4627 45.8996 47.6786 45.4852C48.8928 43.1493 50.2805 40.8273 51.2201 38.3622C51.5116 37.6021 51.8496 36.8491 52.234 36.1032C53.061 34.4961 53.7196 32.8635 54.6038 31.2505C55.2753 30.0211 55.8739 28.7562 56.3996 27.4559C56.4386 27.3598 56.5096 27.3052 56.6125 27.292C57.2381 27.2184 57.7282 27.4495 58.0829 27.9852C59.0472 29.4442 59.9801 30.9269 60.8816 32.4333C61.5787 33.5956 62.0823 34.5293 62.3923 35.2344C62.4646 35.4032 62.6596 35.7315 62.9773 36.2193C63.1842 36.5384 63.3164 36.8941 63.3737 37.2863C63.3882 37.3777 63.4251 37.4592 63.4846 37.5309C64.2112 38.3826 64.791 39.3247 65.224 40.3572C65.8637 41.8833 66.8951 43.1439 67.6216 44.6251C67.7056 44.7972 67.8699 45.0341 68.1143 45.3358C68.3034 45.5714 68.4501 45.8409 68.5546 46.1443C68.5911 46.2536 68.5521 46.3152 68.4377 46.329C68.2281 46.3555 68.0636 46.4573 67.9445 46.6344C67.8787 46.732 67.9045 46.7843 68.0219 46.7915L68.4868 46.8186ZM57.4109 34.5035L55.5504 38.7045C55.5287 38.7542 55.5196 38.8085 55.524 38.8626C55.5284 38.9167 55.5462 38.9688 55.5757 39.0143C55.6052 39.0598 55.6456 39.0973 55.6932 39.1233C55.7408 39.1494 55.7941 39.1632 55.8483 39.1636L60.1372 39.2145C60.3197 39.2183 60.3749 39.1366 60.3027 38.9697C59.605 37.3641 58.725 35.8652 57.6626 34.4729C57.6471 34.4524 57.6265 34.4363 57.6029 34.4263C57.5792 34.4163 57.5534 34.4126 57.5279 34.4157C57.5024 34.4188 57.4782 34.4286 57.4577 34.444C57.4371 34.4594 57.421 34.4799 57.4109 34.5035Z" fill="black"/>
<path d="M85.0499 36.1569L83.1232 39.8371C83.0656 39.9484 83.0025 39.9515 82.9337 39.8464C80.8291 36.6807 78.7922 33.4734 76.8228 30.2245C76.3031 29.3677 75.5597 28.2749 74.5927 26.9461C74.5673 26.9113 74.5342 26.8829 74.4961 26.8632C74.458 26.8435 74.4159 26.833 74.3731 26.8327L71.3812 26.8098" stroke="black"/>
<path d="M71.3812 26.8098L69.1076 26.7656C68.8697 26.7621 68.8145 26.8598 68.942 27.0588L81.6091 46.7995C81.6678 46.8895 81.7498 46.9347 81.8553 46.935L84.787 46.9628C84.8338 46.9629 84.8797 46.9502 84.9195 46.926C84.9593 46.9018 84.9915 46.8671 85.0125 46.8258L92.0064 33.2277C92.0568 33.1301 92.0565 33.0342 92.0054 32.9401L89.4715 28.2453C89.454 28.2139 89.4284 28.1877 89.3973 28.1695C89.3662 28.1513 89.3309 28.1419 89.2951 28.1422C89.2594 28.1425 89.2245 28.1526 89.1943 28.1713C89.1641 28.19 89.1396 28.2167 89.1236 28.2484L85.05 36.1569" stroke="black"/>
<path d="M71.3812 26.8098L70.7372 26.9034C70.6151 26.9209 70.56 26.9928 70.5719 27.1189L70.613 27.4857C70.62 27.5471 70.6491 27.6038 70.695 27.6452C70.7409 27.6866 70.8004 27.7097 70.8622 27.7103L73.9486 27.7184C74.0349 27.7194 74.1032 27.7545 74.1534 27.8237C75.7814 30.0468 77.2922 32.3457 78.6856 34.7204C79.3163 35.7979 79.9499 36.8752 80.5863 37.9524C80.5904 37.96 80.7389 38.1563 81.0318 38.5414C81.1883 38.7471 81.3326 39.0193 81.4649 39.358C81.6752 39.9089 82.0123 40.3827 82.4762 40.7793C82.5553 40.8476 82.6577 40.8828 82.7623 40.8777C82.867 40.8725 82.9661 40.8275 83.039 40.7517C84.2356 39.5015 85.025 38.0349 85.4074 36.352C85.4144 36.3228 85.4145 36.2925 85.4079 36.2633C85.4013 36.2341 85.388 36.2068 85.3692 36.1835C85.3503 36.1603 85.3264 36.1417 85.2992 36.1291C85.272 36.1166 85.2423 36.1104 85.2124 36.1112C85.1568 36.1131 85.1027 36.1283 85.05 36.1569" stroke="black"/>
<path d="M71.3812 26.8098L70.7372 26.9034C70.6151 26.921 70.56 26.9928 70.5719 27.1189L70.6131 27.4857C70.62 27.5471 70.6492 27.6039 70.6951 27.6452C70.741 27.6866 70.8004 27.7097 70.8622 27.7103L73.9486 27.7185C74.0349 27.7194 74.1032 27.7545 74.1535 27.8237C75.7815 30.0468 77.2922 32.3457 78.6856 34.7204C79.3163 35.7979 79.9499 36.8752 80.5863 37.9525C80.5904 37.96 80.7389 38.1563 81.0318 38.5414C81.1883 38.7471 81.3327 39.0193 81.4649 39.3581C81.6752 39.9089 82.0123 40.3827 82.4763 40.7793C82.5553 40.8476 82.6577 40.8828 82.7624 40.8777C82.867 40.8726 82.9661 40.8275 83.039 40.7517C84.2356 39.5015 85.025 38.0349 85.4074 36.352C85.4144 36.3229 85.4146 36.2925 85.4079 36.2633C85.4013 36.2341 85.388 36.2068 85.3692 36.1836C85.3503 36.1603 85.3264 36.1417 85.2992 36.1291C85.272 36.1166 85.2423 36.1104 85.2124 36.1112C85.1568 36.1131 85.1027 36.1283 85.05 36.1569L89.1236 28.2484C89.1396 28.2167 89.1641 28.19 89.1943 28.1713C89.2245 28.1526 89.2594 28.1425 89.2951 28.1422C89.3309 28.1419 89.3662 28.1513 89.3973 28.1695C89.4284 28.1877 89.454 28.2139 89.4715 28.2453L92.0054 32.9401C92.0565 33.0342 92.0568 33.1301 92.0064 33.2277L85.0125 46.8258C84.9915 46.8671 84.9593 46.9018 84.9195 46.926C84.8797 46.9502 84.8338 46.9629 84.787 46.9628L81.8553 46.935C81.7498 46.9347 81.6678 46.8895 81.6091 46.7995L68.942 27.0588C68.8145 26.8598 68.8697 26.7621 69.1076 26.7656L71.3812 26.8098Z" fill="black"/>
<path d="M71.3812 26.8098L74.3732 26.8327C74.4159 26.833 74.458 26.8434 74.4961 26.8631C74.5343 26.8828 74.5673 26.9112 74.5927 26.9461C75.5597 28.2749 76.3031 29.3677 76.8228 30.2245C78.7922 33.4734 80.8292 36.6807 82.9338 39.8464C83.0025 39.9514 83.0657 39.9484 83.1233 39.8371L85.05 36.1569C85.1027 36.1283 85.1568 36.1131 85.2124 36.1112C85.2423 36.1104 85.272 36.1166 85.2992 36.1291C85.3264 36.1417 85.3503 36.1603 85.3692 36.1835C85.388 36.2068 85.4013 36.2341 85.4079 36.2633C85.4145 36.2925 85.4144 36.3228 85.4074 36.352C85.025 38.0349 84.2356 39.5015 83.039 40.7517C82.9661 40.8275 82.867 40.8725 82.7623 40.8777C82.6577 40.8828 82.5553 40.8476 82.4762 40.7793C82.0123 40.3827 81.6752 39.9089 81.4649 39.358C81.3326 39.0193 81.1883 38.7471 81.0318 38.5414C80.7389 38.1563 80.5904 37.96 80.5863 37.9524C79.9499 36.8752 79.3163 35.7979 78.6856 34.7204C77.2922 32.3457 75.7814 30.0468 74.1534 27.8237C74.1032 27.7545 74.0349 27.7194 73.9486 27.7184L70.8622 27.7103C70.8004 27.7097 70.7409 27.6866 70.695 27.6452C70.6491 27.6038 70.62 27.5471 70.613 27.4857L70.5719 27.1189C70.56 26.9928 70.6151 26.9209 70.7372 26.9034L71.3812 26.8098Z" fill="black"/>
<path d="M127.097 42.8088C127.047 42.8091 126.999 42.7903 126.962 42.7563C126.925 42.7224 126.902 42.6757 126.898 42.6257C126.486 37.5565 126.213 32.4893 126.078 27.4242C126.066 26.9376 125.824 26.6773 125.353 26.6433C124.156 26.559 122.898 26.5055 121.58 26.4828C121.34 26.4793 121.23 26.5971 121.25 26.8362C121.588 31.0124 121.842 35.2087 122.013 39.4251C122.112 41.8857 122.24 44.2926 122.397 46.6457C122.41 46.8466 122.517 46.9475 122.718 46.9484L136.073 46.9759C136.142 46.976 136.211 46.9618 136.274 46.9344C136.338 46.9069 136.395 46.8666 136.442 46.8162C136.489 46.7657 136.526 46.7061 136.549 46.6411C136.571 46.5761 136.581 46.5071 136.576 46.4384L136.348 43.3513C136.336 43.188 136.262 43.0354 136.141 42.9242C136.021 42.8129 135.862 42.7514 135.698 42.752L127.097 42.8088Z" stroke="black"/>
<path d="M127.097 42.8088L135.698 42.752C135.862 42.7514 136.021 42.8129 136.141 42.9242C136.262 43.0354 136.336 43.188 136.348 43.3513L136.576 46.4384C136.581 46.5071 136.571 46.5761 136.549 46.6411C136.526 46.7061 136.489 46.7657 136.442 46.8162C136.395 46.8666 136.338 46.9069 136.274 46.9344C136.211 46.9618 136.142 46.976 136.073 46.9759L122.718 46.9484C122.517 46.9475 122.41 46.8466 122.397 46.6457C122.24 44.2926 122.112 41.8857 122.013 39.4251C121.842 35.2087 121.588 31.0124 121.25 26.8362C121.23 26.5971 121.34 26.4793 121.58 26.4828C122.898 26.5055 124.156 26.559 125.353 26.6433C125.824 26.6773 126.066 26.9376 126.078 27.4242C126.213 32.4893 126.486 37.5565 126.898 42.6257C126.902 42.6757 126.925 42.7224 126.962 42.7563C126.999 42.7903 127.047 42.8091 127.097 42.8088Z" fill="black"/>
<path d="M115.655 29.8312L115.591 26.9419C115.59 26.8805 115.565 26.822 115.521 26.7786C115.478 26.7353 115.419 26.7103 115.358 26.7089L110.505 26.5807" stroke="black"/>
<path d="M113.828 38.2779L113.604 35.0081C113.597 34.9221 113.551 34.8793 113.465 34.8798L105.783 34.8817C105.737 34.8818 105.692 34.8636 105.659 34.8309C105.626 34.7982 105.606 34.7535 105.605 34.7065L105.501 31.14C105.497 31.0327 105.549 30.9773 105.657 30.9739C108.749 30.8766 111.848 30.8729 114.955 30.9629C115.336 30.9726 115.564 30.894 115.64 30.7271C115.726 30.5347 115.731 30.2361 115.655 29.8312" stroke="black"/>
<path d="M110.505 26.5808L100.532 26.6371C100.442 26.6378 100.402 26.682 100.412 26.7697L100.738 29.997" stroke="black"/>
<path d="M100.738 29.997L101.629 46.5763C101.633 46.6668 101.673 46.752 101.738 46.8141C101.804 46.8763 101.892 46.9105 101.982 46.9097L116.596 46.88C116.682 46.8795 116.724 46.8362 116.722 46.75L116.635 43.1164C116.624 42.7505 116.436 42.5709 116.069 42.5777L106.519 42.7884C106.45 42.7892 106.382 42.7644 106.33 42.7187C106.278 42.673 106.244 42.6096 106.236 42.5407L105.857 39.4024C105.844 39.2879 105.894 39.2269 106.009 39.2192C108.491 39.0488 110.968 39.0015 113.439 39.0773C113.731 39.0876 113.861 38.8211 113.828 38.2779" stroke="black"/>
<path d="M115.655 29.8312C115.572 29.8469 115.533 29.916 115.539 30.0385C115.543 30.1074 115.511 30.1368 115.443 30.1268C115.3 30.1071 115.187 30.0427 115.105 29.9336C114.923 29.6895 114.966 28.5907 114.812 28.161C114.766 28.0343 114.68 27.9264 114.566 27.8544C114.452 27.7825 114.318 27.7505 114.185 27.7636C112.879 27.8952 111.55 27.625 110.317 27.7127C108.82 27.8203 107.321 27.8944 105.821 27.935C104.829 27.9616 103.023 27.7499 101.584 28.0378C101.482 28.0583 101.392 28.1149 101.329 28.197C101.266 28.2791 101.236 28.3811 101.244 28.4837L101.349 30.07C101.351 30.0996 101.347 30.1293 101.335 30.1567C101.324 30.1841 101.306 30.2083 101.283 30.2275C101.26 30.2466 101.232 30.2601 101.203 30.2668C101.174 30.2735 101.143 30.2732 101.114 30.266C100.984 30.236 100.859 30.1464 100.738 29.997" stroke="black"/>
<path d="M110.505 26.5808L115.358 26.709C115.419 26.7103 115.478 26.7353 115.521 26.7787C115.565 26.8221 115.59 26.8806 115.591 26.942L115.655 29.8312C115.572 29.8469 115.533 29.916 115.539 30.0385C115.543 30.1074 115.511 30.1368 115.443 30.1268C115.3 30.1071 115.187 30.0427 115.105 29.9336C114.923 29.6895 114.966 28.5908 114.812 28.161C114.766 28.0343 114.68 27.9264 114.566 27.8545C114.452 27.7825 114.318 27.7505 114.185 27.7636C112.879 27.8952 111.55 27.625 110.317 27.7127C108.82 27.8203 107.321 27.8944 105.821 27.935C104.829 27.9616 103.023 27.7499 101.584 28.0379C101.482 28.0583 101.392 28.1149 101.329 28.197C101.266 28.2791 101.236 28.3811 101.244 28.4837L101.349 30.07C101.351 30.0996 101.347 30.1293 101.335 30.1567C101.324 30.1841 101.306 30.2083 101.283 30.2275C101.26 30.2466 101.232 30.2601 101.203 30.2668C101.174 30.2735 101.143 30.2732 101.114 30.266C100.984 30.2361 100.859 30.1464 100.738 29.997L100.412 26.7697C100.402 26.682 100.442 26.6378 100.532 26.6371L110.505 26.5808Z" fill="black"/>
<path d="M115.655 29.8312C115.731 30.2361 115.726 30.5347 115.64 30.7271C115.564 30.894 115.336 30.9726 114.955 30.9628C111.848 30.8729 108.749 30.8765 105.657 30.9738C105.549 30.9773 105.497 31.0327 105.501 31.1399L105.605 34.7065C105.606 34.7535 105.626 34.7981 105.659 34.8309C105.692 34.8636 105.737 34.8818 105.783 34.8817L113.465 34.8798C113.551 34.8793 113.597 34.922 113.604 35.0081L113.828 38.2779C113.861 38.8212 113.731 39.0876 113.439 39.0773C110.968 39.0016 108.491 39.0489 106.009 39.2192C105.894 39.2269 105.844 39.2879 105.857 39.4024L106.236 42.5407C106.244 42.6096 106.278 42.673 106.33 42.7187C106.382 42.7644 106.45 42.7892 106.519 42.7884L116.069 42.5777C116.436 42.5709 116.624 42.7505 116.635 43.1164L116.722 46.75C116.724 46.8362 116.682 46.8796 116.596 46.88L101.982 46.9097C101.892 46.9106 101.804 46.8763 101.738 46.8142C101.673 46.752 101.633 46.6668 101.629 46.5763L100.738 29.997C100.859 30.1464 100.984 30.236 101.114 30.266C101.143 30.2732 101.174 30.2735 101.203 30.2668C101.232 30.2601 101.26 30.2466 101.283 30.2275C101.306 30.2083 101.324 30.1841 101.335 30.1567C101.347 30.1293 101.351 30.0996 101.349 30.07L101.244 28.4837C101.236 28.3811 101.266 28.2791 101.329 28.197C101.392 28.1149 101.482 28.0583 101.584 28.0378C103.023 27.7499 104.829 27.9616 105.821 27.935C107.321 27.8944 108.82 27.8203 110.317 27.7127C111.55 27.625 112.879 27.8952 114.185 27.7636C114.318 27.7505 114.452 27.7825 114.566 27.8544C114.68 27.9264 114.766 28.0343 114.812 28.161C114.966 28.5907 114.923 29.6895 115.105 29.9336C115.187 30.0427 115.3 30.1071 115.443 30.1268C115.511 30.1368 115.543 30.1074 115.539 30.0385C115.533 29.916 115.572 29.8469 115.655 29.8312Z" fill="black"/>
<path d="M140.803 27.6579C140.909 29.2649 141.152 30.7609 141.219 32.3463C141.423 37.0141 141.654 41.7385 141.913 46.5195C141.921 46.6673 141.983 46.8068 142.088 46.9111C142.193 47.0155 142.333 47.0771 142.481 47.0842L146.183 47.2644C146.223 47.2663 146.262 47.2598 146.299 47.2455C146.336 47.2312 146.37 47.2094 146.398 47.1814C146.426 47.1534 146.447 47.1198 146.462 47.0828C146.476 47.0459 146.482 47.0063 146.481 46.9667L145.378 27.2938C145.375 27.245 145.353 27.1994 145.317 27.1663C145.281 27.1332 145.234 27.1153 145.185 27.1162L141.269 27.1532C141.205 27.1533 141.141 27.1668 141.082 27.1926C141.023 27.2185 140.97 27.2563 140.927 27.3036C140.883 27.3509 140.849 27.4068 140.828 27.4677C140.807 27.5287 140.798 27.5934 140.803 27.6579Z" stroke="black"/>
<path d="M141.219 32.3463C141.152 30.7609 140.909 29.2649 140.803 27.6579C140.798 27.5934 140.807 27.5287 140.828 27.4677C140.849 27.4068 140.883 27.3509 140.927 27.3036C140.97 27.2563 141.023 27.2185 141.082 27.1926C141.141 27.1668 141.205 27.1533 141.269 27.1532L145.185 27.1162C145.234 27.1153 145.281 27.1332 145.317 27.1663C145.353 27.1994 145.375 27.245 145.378 27.2938L146.481 46.9667C146.482 47.0063 146.476 47.0459 146.462 47.0828C146.447 47.1198 146.426 47.1534 146.398 47.1814C146.37 47.2094 146.336 47.2312 146.299 47.2455C146.262 47.2598 146.223 47.2663 146.183 47.2644L142.481 47.0842C142.333 47.0771 142.193 47.0155 142.088 46.9111C141.983 46.8068 141.921 46.6673 141.913 46.5195C141.654 41.7385 141.423 37.0141 141.219 32.3463Z" fill="black"/>
<path d="M152.08 30.8947C151.467 32.3361 151.415 33.7338 151.925 35.0875C152.325 36.1536 153.014 37.0469 153.991 37.7675C155.991 39.2389 158.46 39.1097 160.551 39.8762C161.391 40.1834 161.858 40.7353 161.95 41.5317" stroke="black"/>
<path d="M161.95 41.5318C161.701 42.5832 161.104 43.2198 160.159 43.4415C158.17 43.9083 156.176 42.6035 155.197 40.8677C155.184 40.8445 155.166 40.8245 155.144 40.8092C155.122 40.7938 155.097 40.7835 155.071 40.7789C155.045 40.7743 155.018 40.7755 154.992 40.7825C154.966 40.7895 154.942 40.8021 154.922 40.8194C153.981 41.6258 152.948 42.2828 151.822 42.7905C151.729 42.8319 151.703 42.8999 151.743 42.9945C151.855 43.2668 152.042 43.5069 152.302 43.7148" stroke="black"/>
<path d="M152.302 43.7148C153.588 45.4604 155.091 46.6302 156.812 47.2241C161.014 48.6731 165.525 46.8472 166.363 42.266" stroke="black"/>
<path d="M166.363 42.266C166.661 38.9829 164.739 36.4822 161.56 35.7782C160.505 35.5434 159.441 35.328 158.366 35.1322C157.313 34.9415 156.597 34.2063 156.218 32.9267" stroke="black"/>
<path d="M156.218 32.9267C156.335 32.4242 156.527 32.1071 156.793 31.9755C158.716 31.0219 160.892 31.8172 161.982 33.6298C162.033 33.7106 162.101 33.7294 162.186 33.6863L165.047 32.2122" stroke="black"/>
<path d="M165.047 32.2123C165.279 32.1508 165.447 32.0722 165.554 31.9766C165.587 31.9464 165.61 31.9061 165.619 31.8617C165.628 31.8174 165.622 31.7713 165.603 31.7305C164.786 30.0323 162.928 28.6712 161.248 27.9714C157.669 26.4814 154 27.2694 152.08 30.8947" stroke="black"/>
<path d="M165.047 32.2123C164.932 31.7176 164.767 31.4279 164.551 31.3431C164.482 31.3167 164.422 31.2756 164.372 31.2197C163.762 30.5471 163.352 29.9685 162.49 29.5718C161.216 28.9878 159.588 27.8577 158.145 28.3923C158.058 28.4234 157.964 28.4275 157.875 28.4043C157.18 28.2072 156.494 28.1757 155.818 28.3096C155.456 28.3813 155.085 28.5903 154.706 28.9367C154.12 29.4742 153.456 29.8359 153.017 30.5381C152.708 31.0298 152.395 31.1487 152.08 30.8947" stroke="black"/>
<path d="M156.218 32.9267C155.74 33.9936 156.006 34.8906 157.016 35.6178C157.862 36.2278 158.868 36.1306 159.893 36.2284C161.728 36.3995 162.815 37.1567 164.32 38.1386C164.853 38.4868 165.215 38.8505 165.404 39.2295C165.797 40.0197 166 40.9667 166.014 42.0707C166.014 42.1857 166.042 42.2529 166.096 42.2721C166.156 42.295 166.245 42.293 166.363 42.266" stroke="black"/>
<path d="M152.302 43.7148C152.893 42.9931 153.644 42.4808 154.554 42.1778C154.616 42.1576 154.682 42.1558 154.745 42.1726C154.808 42.1894 154.864 42.224 154.908 42.2723C156.162 43.6873 157.649 44.4061 159.369 44.4287C160.847 44.4498 161.819 43.8026 162.287 42.4868C162.577 41.6717 162.465 41.3533 161.95 41.5318" stroke="black"/>
<path d="M165.047 32.2123C164.932 31.7176 164.767 31.4279 164.551 31.3431C164.482 31.3167 164.422 31.2756 164.372 31.2198C163.762 30.5471 163.352 29.9685 162.49 29.5718C161.216 28.9878 159.588 27.8577 158.145 28.3923C158.058 28.4234 157.964 28.4275 157.875 28.4043C157.18 28.2072 156.494 28.1757 155.818 28.3097C155.456 28.3813 155.085 28.5903 154.706 28.9367C154.12 29.4742 153.456 29.8359 153.017 30.5381C152.708 31.0298 152.395 31.1487 152.08 30.8947C154 27.2694 157.669 26.4814 161.248 27.9714C162.928 28.6712 164.786 30.0323 165.603 31.7305C165.622 31.7713 165.628 31.8174 165.619 31.8617C165.61 31.9061 165.587 31.9464 165.554 31.9766C165.447 32.0722 165.279 32.1508 165.047 32.2123Z" fill="black"/>
<path d="M165.047 32.2123L162.186 33.6863C162.101 33.7294 162.033 33.7106 161.983 33.6299C160.892 31.8173 158.717 31.022 156.793 31.9755C156.527 32.1072 156.335 32.4242 156.218 32.9267C155.74 33.9936 156.006 34.8906 157.016 35.6178C157.862 36.2278 158.868 36.1306 159.893 36.2284C161.728 36.3995 162.815 37.1567 164.32 38.1385C164.854 38.4868 165.215 38.8505 165.404 39.2295C165.797 40.0197 166 40.9667 166.014 42.0707C166.014 42.1857 166.042 42.2529 166.096 42.2721C166.156 42.295 166.245 42.293 166.363 42.266C165.525 46.8471 161.014 48.673 156.812 47.2241C155.091 46.6301 153.588 45.4603 152.302 43.7147C152.893 42.993 153.644 42.4807 154.554 42.1778C154.616 42.1576 154.682 42.1558 154.745 42.1726C154.808 42.1893 154.864 42.224 154.908 42.2723C156.162 43.6873 157.649 44.406 159.369 44.4286C160.847 44.4498 161.819 43.8025 162.287 42.4867C162.577 41.6716 162.465 41.3533 161.95 41.5317C161.858 40.7352 161.391 40.1834 160.551 39.8762C158.46 39.1097 155.991 39.2389 153.991 37.7675C153.014 37.0469 152.325 36.1535 151.925 35.0875C151.415 33.7337 151.467 32.3361 152.08 30.8946C152.395 31.1486 152.708 31.0298 153.017 30.5381C153.456 29.8359 154.12 29.4741 154.706 28.9367C155.085 28.5903 155.456 28.3812 155.818 28.3096C156.494 28.1756 157.18 28.2072 157.875 28.4043C157.964 28.4275 158.058 28.4233 158.145 28.3923C159.588 27.8576 161.216 28.9877 162.49 29.5718C163.352 29.9684 163.763 30.5471 164.372 31.2197C164.422 31.2756 164.482 31.3167 164.551 31.3431C164.767 31.4279 164.932 31.7176 165.047 32.2123Z" fill="black"/>
<path d="M156.218 32.9267C156.597 34.2063 157.313 34.9415 158.366 35.1323C159.441 35.3281 160.505 35.5434 161.56 35.7782C164.739 36.4822 166.661 38.9829 166.363 42.266C166.245 42.293 166.156 42.295 166.096 42.2721C166.042 42.2529 166.014 42.1857 166.014 42.0707C166 40.9667 165.797 40.0197 165.404 39.2295C165.215 38.8505 164.853 38.4868 164.32 38.1386C162.815 37.1567 161.728 36.3995 159.893 36.2284C158.868 36.1306 157.862 36.2278 157.016 35.6178C156.006 34.8906 155.74 33.9936 156.218 32.9267Z" fill="black"/>
<path d="M161.95 41.5318C162.465 41.3534 162.577 41.6717 162.287 42.4868C161.819 43.8026 160.847 44.4499 159.369 44.4287C157.649 44.4061 156.162 43.6873 154.908 42.2723C154.864 42.224 154.808 42.1894 154.745 42.1726C154.682 42.1559 154.616 42.1577 154.554 42.1778C153.644 42.4808 152.893 42.9931 152.302 43.7148C152.042 43.5069 151.855 43.2668 151.743 42.9945C151.703 42.8999 151.729 42.8319 151.822 42.7905C152.948 42.2828 153.981 41.6257 154.922 40.8194C154.942 40.8021 154.966 40.7895 154.992 40.7825C155.018 40.7755 155.045 40.7743 155.071 40.7789C155.097 40.7835 155.122 40.7938 155.144 40.8092C155.166 40.8245 155.184 40.8445 155.197 40.8677C156.176 42.6035 158.17 43.9083 160.159 43.4415C161.104 43.2198 161.701 42.5832 161.95 41.5318Z" fill="black"/>
<path d="M182.124 32.9922L182.116 31.7442C182.115 31.612 182.166 31.4846 182.259 31.3899C182.352 31.2951 182.478 31.2408 182.611 31.2386L188.281 31.1627C188.38 31.1631 188.442 31.1141 188.465 31.0155C188.543 30.7023 188.557 30.4516 188.506 30.2635" stroke="black"/>
<path d="M188.506 30.2634L188.643 26.8075C188.647 26.7 188.594 26.6452 188.485 26.6431L180.883 26.5569" stroke="black"/>
<path d="M180.883 26.557L170.356 26.6154C170.246 26.6152 170.172 26.6656 170.134 26.7667C170.026 27.0406 170.001 27.4115 170.059 27.8794" stroke="black"/>
<path d="M170.059 27.8794L170.165 30.844C170.167 30.9167 170.197 30.9857 170.25 31.0365C170.302 31.0873 170.371 31.1159 170.444 31.1164L176.788 31.1846C177.001 31.187 177.108 31.2946 177.11 31.5074L177.197 47.0672C177.197 47.1682 177.237 47.2652 177.308 47.3375C177.379 47.4097 177.476 47.4516 177.578 47.4541L181.962 47.5509C182.079 47.5527 182.137 47.4952 182.137 47.3782L182.124 32.9922" stroke="black"/>
<path d="M188.506 30.2634C188.172 30.2421 187.913 30.2681 187.729 30.3414C187.663 30.3666 187.617 30.347 187.592 30.2827C187.256 29.4226 188.665 29.0041 187.83 27.7696C187.777 27.6889 187.703 27.6492 187.607 27.6505C185.691 27.6787 183.775 27.6876 181.859 27.6774C181.459 27.6736 181.166 27.5109 180.717 27.5203C180.259 27.528 179.455 27.489 178.303 27.4031C177.452 27.3379 175.912 27.4434 173.683 27.7198C173.107 27.791 172.504 27.8286 171.875 27.8325C171.273 27.8374 170.668 27.853 170.059 27.8793" stroke="black"/>
<path d="M180.883 26.557L188.485 26.6431C188.594 26.6452 188.647 26.7 188.643 26.8075L188.506 30.2635C188.172 30.2421 187.913 30.2681 187.729 30.3414C187.663 30.3666 187.617 30.3471 187.592 30.2827C187.256 29.4226 188.665 29.0041 187.83 27.7696C187.777 27.689 187.703 27.6493 187.607 27.6506C185.691 27.6787 183.775 27.6877 181.859 27.6774C181.459 27.6736 181.166 27.5109 180.717 27.5203C180.259 27.5281 179.455 27.489 178.303 27.4032C177.452 27.3379 175.912 27.4435 173.683 27.7199C173.107 27.7911 172.504 27.8286 171.875 27.8326C171.273 27.8375 170.668 27.8531 170.059 27.8794C170.001 27.4115 170.026 27.0406 170.134 26.7667C170.172 26.6656 170.246 26.6152 170.356 26.6154L180.883 26.557Z" fill="black"/>
<path d="M188.506 30.2634C188.557 30.4515 188.543 30.7022 188.465 31.0155C188.442 31.114 188.38 31.1631 188.281 31.1626L182.611 31.2386C182.478 31.2407 182.352 31.2951 182.259 31.3898C182.166 31.4846 182.115 31.612 182.116 31.7442L182.124 32.9922L182.137 47.3781C182.137 47.4951 182.079 47.5527 181.962 47.5508L177.578 47.454C177.476 47.4515 177.379 47.4097 177.308 47.3374C177.237 47.2651 177.197 47.1682 177.197 47.0671L177.11 31.5073C177.108 31.2945 177.001 31.1869 176.788 31.1845L170.444 31.1164C170.371 31.1158 170.302 31.0872 170.25 31.0364C170.197 30.9856 170.167 30.9166 170.165 30.8439L170.059 27.8793C170.668 27.853 171.273 27.8374 171.875 27.8325C172.504 27.8286 173.107 27.791 173.683 27.7198C175.912 27.4434 177.452 27.3379 178.303 27.4031C179.455 27.489 180.259 27.528 180.717 27.5203C181.166 27.5109 181.459 27.6736 181.859 27.6774C183.775 27.6876 185.691 27.6787 187.607 27.6505C187.703 27.6492 187.777 27.6889 187.83 27.7696C188.665 29.0041 187.256 29.4226 187.592 30.2827C187.617 30.347 187.663 30.3666 187.729 30.3414C187.913 30.2681 188.172 30.2421 188.506 30.2634Z" fill="black"/>
</svg>
